Coordinates
version=1
nRows=8
nColumns=36
inDegrees=yes

Units are S.I. units (second, meters, Newtons, ...)
If the header above contains a line with 'inDegrees', this indicates whether rotational values are in degrees (yes) or radians (no).

endheader
time	pelvis_tilt	pelvis_list	pelvis_rotation	pelvis_tx	pelvis_ty	pelvis_tz	hip_flexion_r	hip_adduction_r	hip_rotation_r	knee_angle_r	knee_angle_r_beta	ankle_angle_r	subtalar_angle_r	mtp_angle_r	hip_flexion_l	hip_adduction_l	hip_rotation_l	knee_angle_l	knee_angle_l_beta	ankle_angle_l	subtalar_angle_l	mtp_angle_l	lumbar_extension	lumbar_bending	lumbar_rotation	arm_flex_r	arm_add_r	arm_rot_r	elbow_flex_r	pro_sup_r	arm_flex_l	arm_add_l	arm_rot_l	elbow_flex_l	pro_sup_l
      3.80000000	    -26.98038018	      3.84307814	     -4.99239067	      0.76252123	      0.66086186	      0.13540760	     79.77981159	     -1.56226379	     -2.64003977	     86.77331729	      1.51448009	     30.79352542	    -23.50688677	     -7.49999987	     80.63263170	     -6.83055542	     -0.45974653	     84.02605503	      1.46653132	     28.63058597	    -12.53499406	     -7.49999987	    -45.07593022	      1.03194147	      1.68226798	     50.06142917	     -9.53799453	      5.12538913	     82.04671252	     85.96366655	     55.68194951	    -18.88394462	      3.93709145	     76.93232885	     70.21073151
      3.81666670	    -27.30873914	      3.89198073	     -4.92209423	      0.76437702	      0.66163637	      0.14081396	     79.94536309	     -1.37539027	     -2.72786791	     86.22918048	      1.50498311	     30.50129893	    -23.68014321	     -7.49999987	     80.81244353	     -7.12540596	     -0.31052174	     83.39567846	      1.45552917	     28.30527981	    -12.14609655	     -7.49999987	    -45.06505901	      0.89240029	      1.67305533	     50.27507225	     -9.91136028	      5.67563711	     82.77644016	     86.32481637	     55.86297240	    -18.83912417	      4.14305196	     77.41431686	     70.30955930
      3.83333330	    -27.62109062	      3.89684841	     -4.72646901	      0.76728030	      0.66569756	      0.14314986	     79.47273935	     -1.33432930	     -2.97003993	     85.28539006	      1.48851086	     30.29260500	    -23.60541353	     -7.49999987	     80.78936356	     -7.40241408	     -0.41846302	     82.77883176	      1.44476317	     27.60523345	    -12.02596910	     -7.49999987	    -44.95017226	      0.79779948	      1.69285986	     49.90835924	    -10.12512046	      5.87238311	     83.06156040	     85.68531879	     55.46532678	    -18.71584821	      4.13721745	     77.77198040	     69.95603883
      3.85000000	    -27.44597311	      4.01082218	     -4.62899852	      0.76879082	      0.67021195	      0.14494340	     78.34378577	     -1.43703149	     -3.14897515	     84.17005022	      1.46904451	     30.05406513	    -23.43775115	     -7.49999987	     79.70932531	     -7.71609699	     -0.71613222	     81.55160901	      1.42334409	     26.93702949	    -11.49250781	     -7.49999987	    -45.16835216	      0.55242977	      1.59540976	     49.60516553	    -10.04990288	      5.91658822	     82.49849513	     84.18982786	     54.94107962	    -18.56476035	      4.12037065	     77.41033316	     69.19588197
      3.86666670	    -27.00869038	      4.14808644	     -4.63222558	      0.76831338	      0.67382553	      0.14477499	     77.23661192	     -1.40733117	     -3.03053418	     83.40978272	      1.45577534	     29.37182482	    -24.02626702	     -7.49999987	     78.31276055	     -8.05799159	     -1.31278876	     80.28373425	      1.40121550	     27.00699114	    -10.34562790	     -7.49999987	    -45.50838194	      0.18398044	      1.55437626	     49.11323810	    -10.29972489	      6.12333409	     82.08781401	     83.92279011	     54.28896573	    -18.39220516	      4.23186772	     77.16344184	     69.03548423
      3.88333330	    -26.42642786	      4.21260460	     -4.44895273	      0.76973664	      0.67679906	      0.14140894	     76.06474826	     -1.95995838	     -3.10690751	     82.65318080	      1.44257014	     28.55033864	    -24.24930089	     -7.49999987	     76.88537515	     -7.89445402	     -1.99997310	     79.25036356	      1.38317978	     26.76770857	    -10.33183164	     -7.49999987	    -45.49938556	      0.24854617	      1.34061047	     48.69259340	    -10.51560515	      6.35187194	     80.91595481	     84.12267155	     53.52352413	    -18.19388733	      4.52574912	     76.08716250	     69.14221319
      3.90000000	    -25.89848731	      4.15822997	     -4.45030035	      0.77494745	      0.67816411	      0.14173165	     74.65579784	     -2.31390551	     -3.25100660	     81.94679311	      1.43024135	     28.48243040	    -24.29856200	     -7.49999987	     75.55721378	     -7.87847480	     -2.30918593	     78.39013873	      1.36816602	     26.64513079	    -10.27941600	     -7.49999987	    -45.21384172	      0.36735198	      1.32794902	     47.69900042	    -10.65561385	      6.35809290	     80.24882100	     83.07508731	     52.03499534	    -18.00470462	      4.57531175	     75.60958417	     68.63680877
      3.91666670	    -24.95867266	      4.02545930	     -4.28285204	      0.78755654	      0.68548683	      0.14352230	     72.53326399	     -2.86797041	     -3.51897125	     81.42134671	      1.42107058	     28.86037734	    -23.98448542	     -7.49999987	     73.33378438	     -8.00926844	     -2.88448752	     77.53959884	      1.35332130	     27.17843814	     -9.38095085	     -7.49999987	    -45.29561590	      0.58424601	      1.25543511	     46.41428001	    -10.66044787	      6.13604134	     79.31546098	     83.77761532	     50.31344129	    -17.54054836	      3.93192208	     74.54142660	     68.93705034
